<mxfile host="app.diagrams.net" modified="2024-03-15T00:32:39.017Z" agent="Mozilla/5.0 (Windows NT 10.0; Win64; x64) AppleWebKit/537.36 (KHTML, like Gecko) Chrome/122.0.0.0 Safari/537.36" etag="KqKRJSyMBPPs7dDPvc7K" version="24.0.2" type="device">
  <diagram name="Page-1" id="LcC-b1PF1Xd6xPBBCu2K">
    <mxGraphModel dx="3910" dy="1310" grid="1" gridSize="10" guides="1" tooltips="1" connect="1" arrows="1" fold="1" page="1" pageScale="1" pageWidth="850" pageHeight="1100" math="0" shadow="0">
      <root>
        <mxCell id="0" />
        <mxCell id="1" parent="0" />
        <mxCell id="yq6flEP6wWiERsx3pFqE-195" value="" style="rounded=0;whiteSpace=wrap;html=1;" parent="1" vertex="1">
          <mxGeometry x="-490" y="1215" width="120" height="60" as="geometry" />
        </mxCell>
        <mxCell id="yq6flEP6wWiERsx3pFqE-2" value="LIVRO" style="rounded=0;whiteSpace=wrap;html=1;" parent="1" vertex="1">
          <mxGeometry x="-700" y="130" width="140" height="60" as="geometry" />
        </mxCell>
        <mxCell id="yq6flEP6wWiERsx3pFqE-4" value="AUTOR" style="rounded=0;whiteSpace=wrap;html=1;" parent="1" vertex="1">
          <mxGeometry x="-340" y="130" width="120" height="60" as="geometry" />
        </mxCell>
        <mxCell id="yq6flEP6wWiERsx3pFqE-14" value="" style="ellipse;whiteSpace=wrap;html=1;rounded=0;fillColor=#00CC66;" parent="1" vertex="1">
          <mxGeometry x="-650" y="260" width="30" height="30" as="geometry" />
        </mxCell>
        <mxCell id="yq6flEP6wWiERsx3pFqE-16" value="Titulo" style="text;html=1;align=center;verticalAlign=middle;whiteSpace=wrap;rounded=0;rotation=90;" parent="1" vertex="1">
          <mxGeometry x="-665" y="310" width="60" height="30" as="geometry" />
        </mxCell>
        <mxCell id="yq6flEP6wWiERsx3pFqE-22" value="" style="ellipse;whiteSpace=wrap;html=1;rounded=0;" parent="1" vertex="1">
          <mxGeometry x="-690" y="260" width="30" height="30" as="geometry" />
        </mxCell>
        <mxCell id="yq6flEP6wWiERsx3pFqE-35" value="&lt;div&gt;ISBN&lt;/div&gt;&lt;div&gt;PK&lt;/div&gt;&lt;div&gt;&lt;br&gt;&lt;/div&gt;" style="text;html=1;align=center;verticalAlign=middle;whiteSpace=wrap;rounded=0;rotation=90;" parent="1" vertex="1">
          <mxGeometry x="-710" y="320" width="60" height="30" as="geometry" />
        </mxCell>
        <mxCell id="yq6flEP6wWiERsx3pFqE-37" value="" style="ellipse;whiteSpace=wrap;html=1;rounded=0;fillColor=#00CC66;" parent="1" vertex="1">
          <mxGeometry x="-595" y="260" width="30" height="30" as="geometry" />
        </mxCell>
        <mxCell id="yq6flEP6wWiERsx3pFqE-43" value="Ano_Publicacao" style="text;html=1;align=center;verticalAlign=middle;whiteSpace=wrap;rounded=0;rotation=90;" parent="1" vertex="1">
          <mxGeometry x="-610" y="330" width="60" height="30" as="geometry" />
        </mxCell>
        <mxCell id="yq6flEP6wWiERsx3pFqE-45" value="" style="ellipse;whiteSpace=wrap;html=1;" parent="1" vertex="1">
          <mxGeometry x="-340" y="270" width="30" height="30" as="geometry" />
        </mxCell>
        <mxCell id="yq6flEP6wWiERsx3pFqE-46" value="" style="ellipse;whiteSpace=wrap;html=1;fillColor=#00CC66;" parent="1" vertex="1">
          <mxGeometry x="-295" y="270" width="30" height="30" as="geometry" />
        </mxCell>
        <mxCell id="yq6flEP6wWiERsx3pFqE-48" value="" style="endArrow=none;html=1;rounded=0;" parent="1" edge="1">
          <mxGeometry width="50" height="50" relative="1" as="geometry">
            <mxPoint x="-325.5" y="270" as="sourcePoint" />
            <mxPoint x="-325.5" y="190" as="targetPoint" />
          </mxGeometry>
        </mxCell>
        <mxCell id="yq6flEP6wWiERsx3pFqE-49" value="" style="endArrow=none;html=1;rounded=0;" parent="1" edge="1">
          <mxGeometry width="50" height="50" relative="1" as="geometry">
            <mxPoint x="-280.5" y="270" as="sourcePoint" />
            <mxPoint x="-280.5" y="190" as="targetPoint" />
          </mxGeometry>
        </mxCell>
        <mxCell id="yq6flEP6wWiERsx3pFqE-55" value="" style="endArrow=none;html=1;rounded=0;entryX=0.697;entryY=1.063;entryDx=0;entryDy=0;entryPerimeter=0;" parent="1" edge="1">
          <mxGeometry width="50" height="50" relative="1" as="geometry">
            <mxPoint x="-580" y="260" as="sourcePoint" />
            <mxPoint x="-580.4" y="190.00000000000003" as="targetPoint" />
            <Array as="points">
              <mxPoint x="-580.04" y="246.22" />
            </Array>
          </mxGeometry>
        </mxCell>
        <mxCell id="yq6flEP6wWiERsx3pFqE-56" value="" style="endArrow=none;html=1;rounded=0;" parent="1" edge="1">
          <mxGeometry width="50" height="50" relative="1" as="geometry">
            <mxPoint x="-675.09" y="260" as="sourcePoint" />
            <mxPoint x="-675.59" y="190" as="targetPoint" />
          </mxGeometry>
        </mxCell>
        <mxCell id="yq6flEP6wWiERsx3pFqE-57" value="" style="endArrow=none;html=1;rounded=0;" parent="1" edge="1">
          <mxGeometry width="50" height="50" relative="1" as="geometry">
            <mxPoint x="-634.5" y="260" as="sourcePoint" />
            <mxPoint x="-635" y="190" as="targetPoint" />
            <Array as="points">
              <mxPoint x="-634.5" y="230" />
            </Array>
          </mxGeometry>
        </mxCell>
        <mxCell id="yq6flEP6wWiERsx3pFqE-59" value="" style="endArrow=none;html=1;rounded=0;" parent="1" edge="1">
          <mxGeometry width="50" height="50" relative="1" as="geometry">
            <mxPoint x="-560" y="159.5" as="sourcePoint" />
            <mxPoint x="-500" y="159.5" as="targetPoint" />
            <Array as="points">
              <mxPoint x="-519.5" y="159.5" />
            </Array>
          </mxGeometry>
        </mxCell>
        <mxCell id="yq6flEP6wWiERsx3pFqE-60" value="" style="endArrow=none;html=1;rounded=0;entryX=0;entryY=0.5;entryDx=0;entryDy=0;" parent="1" target="yq6flEP6wWiERsx3pFqE-4" edge="1">
          <mxGeometry width="50" height="50" relative="1" as="geometry">
            <mxPoint x="-410" y="159.5" as="sourcePoint" />
            <mxPoint x="-350" y="159.5" as="targetPoint" />
            <Array as="points">
              <mxPoint x="-369.5" y="159.5" />
            </Array>
          </mxGeometry>
        </mxCell>
        <mxCell id="yq6flEP6wWiERsx3pFqE-65" value="ID_Autor&lt;div&gt;PK&lt;/div&gt;" style="text;html=1;align=center;verticalAlign=middle;whiteSpace=wrap;rounded=0;rotation=90;" parent="1" vertex="1">
          <mxGeometry x="-355" y="330" width="60" height="30" as="geometry" />
        </mxCell>
        <mxCell id="yq6flEP6wWiERsx3pFqE-66" value="Nome" style="text;html=1;align=center;verticalAlign=middle;whiteSpace=wrap;rounded=0;rotation=90;" parent="1" vertex="1">
          <mxGeometry x="-310" y="330" width="60" height="30" as="geometry" />
        </mxCell>
        <mxCell id="yq6flEP6wWiERsx3pFqE-73" value="N" style="text;html=1;align=center;verticalAlign=middle;whiteSpace=wrap;rounded=0;rotation=0;" parent="1" vertex="1">
          <mxGeometry x="-550" y="130" width="50" height="20" as="geometry" />
        </mxCell>
        <mxCell id="yq6flEP6wWiERsx3pFqE-74" value="N" style="text;html=1;align=center;verticalAlign=middle;whiteSpace=wrap;rounded=0;rotation=0;" parent="1" vertex="1">
          <mxGeometry x="-400" y="135" width="50" height="20" as="geometry" />
        </mxCell>
        <mxCell id="yq6flEP6wWiERsx3pFqE-77" value="" style="ellipse;whiteSpace=wrap;html=1;rounded=0;fillColor=#00CC66;" parent="1" vertex="1">
          <mxGeometry x="-625" y="370" width="30" height="30" as="geometry" />
        </mxCell>
        <mxCell id="yq6flEP6wWiERsx3pFqE-79" value="Editora" style="text;html=1;align=center;verticalAlign=middle;whiteSpace=wrap;rounded=0;rotation=90;" parent="1" vertex="1">
          <mxGeometry x="-635" y="420" width="60" height="30" as="geometry" />
        </mxCell>
        <mxCell id="yq6flEP6wWiERsx3pFqE-80" value="" style="endArrow=none;html=1;rounded=0;entryX=0.664;entryY=1.04;entryDx=0;entryDy=0;entryPerimeter=0;exitX=0.5;exitY=0;exitDx=0;exitDy=0;" parent="1" source="yq6flEP6wWiERsx3pFqE-77" target="yq6flEP6wWiERsx3pFqE-2" edge="1">
          <mxGeometry width="50" height="50" relative="1" as="geometry">
            <mxPoint x="-610.19" y="360" as="sourcePoint" />
            <mxPoint x="-610.59" y="290" as="targetPoint" />
            <Array as="points">
              <mxPoint x="-610.23" y="346.22" />
            </Array>
          </mxGeometry>
        </mxCell>
        <mxCell id="yq6flEP6wWiERsx3pFqE-81" value="" style="ellipse;whiteSpace=wrap;html=1;" parent="1" vertex="1">
          <mxGeometry x="-495" y="270" width="30" height="30" as="geometry" />
        </mxCell>
        <mxCell id="yq6flEP6wWiERsx3pFqE-82" value="ID_Autor&lt;div&gt;#FK&lt;/div&gt;" style="text;html=1;align=center;verticalAlign=middle;whiteSpace=wrap;rounded=0;rotation=90;" parent="1" vertex="1">
          <mxGeometry x="-510" y="330" width="60" height="30" as="geometry" />
        </mxCell>
        <mxCell id="yq6flEP6wWiERsx3pFqE-83" value="" style="ellipse;whiteSpace=wrap;html=1;rounded=0;" parent="1" vertex="1">
          <mxGeometry x="-440" y="270" width="30" height="30" as="geometry" />
        </mxCell>
        <mxCell id="yq6flEP6wWiERsx3pFqE-84" value="&lt;div&gt;ISBN&lt;/div&gt;&lt;div&gt;#FK&lt;/div&gt;" style="text;html=1;align=center;verticalAlign=middle;whiteSpace=wrap;rounded=0;rotation=90;" parent="1" vertex="1">
          <mxGeometry x="-460" y="330" width="60" height="30" as="geometry" />
        </mxCell>
        <mxCell id="yq6flEP6wWiERsx3pFqE-85" value="" style="rounded=0;whiteSpace=wrap;html=1;" parent="1" vertex="1">
          <mxGeometry x="-510" y="130" width="120" height="60" as="geometry" />
        </mxCell>
        <mxCell id="yq6flEP6wWiERsx3pFqE-5" value="Escrito" style="rhombus;whiteSpace=wrap;html=1;" parent="1" vertex="1">
          <mxGeometry x="-510" y="135" width="120" height="50" as="geometry" />
        </mxCell>
        <mxCell id="yq6flEP6wWiERsx3pFqE-86" value="" style="endArrow=none;html=1;rounded=0;exitX=0.5;exitY=0;exitDx=0;exitDy=0;" parent="1" source="yq6flEP6wWiERsx3pFqE-81" edge="1">
          <mxGeometry width="50" height="50" relative="1" as="geometry">
            <mxPoint x="-480.09000000000003" y="260" as="sourcePoint" />
            <mxPoint x="-480.59000000000003" y="190" as="targetPoint" />
          </mxGeometry>
        </mxCell>
        <mxCell id="yq6flEP6wWiERsx3pFqE-87" value="" style="endArrow=none;html=1;rounded=0;exitX=0.5;exitY=0;exitDx=0;exitDy=0;" parent="1" edge="1">
          <mxGeometry width="50" height="50" relative="1" as="geometry">
            <mxPoint x="-424.59000000000003" y="270" as="sourcePoint" />
            <mxPoint x="-425.18" y="190" as="targetPoint" />
            <Array as="points">
              <mxPoint x="-425.59000000000003" y="220" />
            </Array>
          </mxGeometry>
        </mxCell>
        <mxCell id="yq6flEP6wWiERsx3pFqE-93" value="&lt;span style=&quot;background-color: rgb(255, 79, 15);&quot;&gt;EXERCICIO 01&lt;/span&gt;" style="text;html=1;align=center;verticalAlign=middle;whiteSpace=wrap;rounded=0;" parent="1" vertex="1">
          <mxGeometry x="-530" y="60" width="160" height="30" as="geometry" />
        </mxCell>
        <mxCell id="yq6flEP6wWiERsx3pFqE-94" value="CURSOS" style="rounded=0;whiteSpace=wrap;html=1;" parent="1" vertex="1">
          <mxGeometry x="-780" y="610" width="140" height="60" as="geometry" />
        </mxCell>
        <mxCell id="yq6flEP6wWiERsx3pFqE-95" value="ALUNOS" style="rounded=0;whiteSpace=wrap;html=1;" parent="1" vertex="1">
          <mxGeometry x="-170" y="610" width="120" height="60" as="geometry" />
        </mxCell>
        <mxCell id="yq6flEP6wWiERsx3pFqE-96" value="" style="ellipse;whiteSpace=wrap;html=1;rounded=0;fillColor=#00CC66;" parent="1" vertex="1">
          <mxGeometry x="-745" y="750" width="30" height="30" as="geometry" />
        </mxCell>
        <mxCell id="yq6flEP6wWiERsx3pFqE-97" value="nome_curso" style="text;html=1;align=center;verticalAlign=middle;whiteSpace=wrap;rounded=0;rotation=90;" parent="1" vertex="1">
          <mxGeometry x="-760" y="810" width="60" height="30" as="geometry" />
        </mxCell>
        <mxCell id="yq6flEP6wWiERsx3pFqE-98" value="" style="ellipse;whiteSpace=wrap;html=1;rounded=0;" parent="1" vertex="1">
          <mxGeometry x="-790" y="770" width="30" height="30" as="geometry" />
        </mxCell>
        <mxCell id="yq6flEP6wWiERsx3pFqE-99" value="&lt;div&gt;ID_Curso (PK)&lt;/div&gt;" style="text;html=1;align=center;verticalAlign=middle;whiteSpace=wrap;rounded=0;rotation=90;" parent="1" vertex="1">
          <mxGeometry x="-805" y="825" width="60" height="30" as="geometry" />
        </mxCell>
        <mxCell id="yq6flEP6wWiERsx3pFqE-102" value="" style="ellipse;whiteSpace=wrap;html=1;" parent="1" vertex="1">
          <mxGeometry x="-180" y="750" width="30" height="30" as="geometry" />
        </mxCell>
        <mxCell id="yq6flEP6wWiERsx3pFqE-103" value="" style="ellipse;whiteSpace=wrap;html=1;fillColor=#00CC66;" parent="1" vertex="1">
          <mxGeometry x="-125" y="750" width="30" height="30" as="geometry" />
        </mxCell>
        <mxCell id="yq6flEP6wWiERsx3pFqE-104" value="" style="endArrow=none;html=1;rounded=0;" parent="1" edge="1">
          <mxGeometry width="50" height="50" relative="1" as="geometry">
            <mxPoint x="-165.42000000000002" y="750" as="sourcePoint" />
            <mxPoint x="-165.42000000000002" y="670" as="targetPoint" />
          </mxGeometry>
        </mxCell>
        <mxCell id="yq6flEP6wWiERsx3pFqE-105" value="" style="endArrow=none;html=1;rounded=0;" parent="1" edge="1">
          <mxGeometry width="50" height="50" relative="1" as="geometry">
            <mxPoint x="-110.41999999999996" y="750" as="sourcePoint" />
            <mxPoint x="-110.41999999999996" y="670" as="targetPoint" />
          </mxGeometry>
        </mxCell>
        <mxCell id="yq6flEP6wWiERsx3pFqE-107" value="" style="endArrow=none;html=1;rounded=0;exitX=0.5;exitY=0;exitDx=0;exitDy=0;" parent="1" source="yq6flEP6wWiERsx3pFqE-98" edge="1">
          <mxGeometry width="50" height="50" relative="1" as="geometry">
            <mxPoint x="-774.92" y="740" as="sourcePoint" />
            <mxPoint x="-775.42" y="670" as="targetPoint" />
          </mxGeometry>
        </mxCell>
        <mxCell id="yq6flEP6wWiERsx3pFqE-108" value="" style="endArrow=none;html=1;rounded=0;exitX=0.5;exitY=0;exitDx=0;exitDy=0;" parent="1" source="yq6flEP6wWiERsx3pFqE-96" edge="1">
          <mxGeometry width="50" height="50" relative="1" as="geometry">
            <mxPoint x="-729.92" y="740" as="sourcePoint" />
            <mxPoint x="-730.42" y="670" as="targetPoint" />
            <Array as="points">
              <mxPoint x="-729.92" y="710" />
            </Array>
          </mxGeometry>
        </mxCell>
        <mxCell id="yq6flEP6wWiERsx3pFqE-109" value="" style="endArrow=none;html=1;rounded=0;exitX=1;exitY=0.5;exitDx=0;exitDy=0;entryX=0;entryY=0.5;entryDx=0;entryDy=0;" parent="1" source="yq6flEP6wWiERsx3pFqE-94" target="yq6flEP6wWiERsx3pFqE-122" edge="1">
          <mxGeometry width="50" height="50" relative="1" as="geometry">
            <mxPoint x="-555" y="639.5" as="sourcePoint" />
            <mxPoint x="-480" y="640" as="targetPoint" />
            <Array as="points">
              <mxPoint x="-514.5" y="639.5" />
            </Array>
          </mxGeometry>
        </mxCell>
        <mxCell id="yq6flEP6wWiERsx3pFqE-110" value="" style="endArrow=none;html=1;rounded=0;entryX=0;entryY=0.5;entryDx=0;entryDy=0;" parent="1" target="yq6flEP6wWiERsx3pFqE-95" edge="1">
          <mxGeometry width="50" height="50" relative="1" as="geometry">
            <mxPoint x="-405" y="639.5" as="sourcePoint" />
            <mxPoint x="-345" y="639.5" as="targetPoint" />
            <Array as="points">
              <mxPoint x="-364.5" y="639.5" />
            </Array>
          </mxGeometry>
        </mxCell>
        <mxCell id="yq6flEP6wWiERsx3pFqE-111" value="ID_Aluno (PK)" style="text;html=1;align=center;verticalAlign=middle;whiteSpace=wrap;rounded=0;rotation=90;" parent="1" vertex="1">
          <mxGeometry x="-200" y="810" width="60" height="30" as="geometry" />
        </mxCell>
        <mxCell id="yq6flEP6wWiERsx3pFqE-112" value="Nome_Aluno" style="text;html=1;align=center;verticalAlign=middle;whiteSpace=wrap;rounded=0;rotation=90;" parent="1" vertex="1">
          <mxGeometry x="-140" y="820" width="60" height="30" as="geometry" />
        </mxCell>
        <mxCell id="yq6flEP6wWiERsx3pFqE-119" value="ID_turma (PK)" style="text;html=1;align=center;verticalAlign=middle;whiteSpace=wrap;rounded=0;rotation=90;" parent="1" vertex="1">
          <mxGeometry x="-505" y="810" width="60" height="30" as="geometry" />
        </mxCell>
        <mxCell id="yq6flEP6wWiERsx3pFqE-120" value="" style="ellipse;whiteSpace=wrap;html=1;rounded=0;" parent="1" vertex="1">
          <mxGeometry x="-435" y="750" width="30" height="30" as="geometry" />
        </mxCell>
        <mxCell id="yq6flEP6wWiERsx3pFqE-121" value="&lt;div&gt;Professor&lt;/div&gt;" style="text;html=1;align=center;verticalAlign=middle;whiteSpace=wrap;rounded=0;rotation=90;" parent="1" vertex="1">
          <mxGeometry x="-405" y="810" width="60" height="30" as="geometry" />
        </mxCell>
        <mxCell id="yq6flEP6wWiERsx3pFqE-122" value="TURMA" style="rounded=0;whiteSpace=wrap;html=1;" parent="1" vertex="1">
          <mxGeometry x="-475" y="610" width="120" height="60" as="geometry" />
        </mxCell>
        <mxCell id="yq6flEP6wWiERsx3pFqE-124" value="" style="endArrow=none;html=1;rounded=0;exitX=0.5;exitY=0;exitDx=0;exitDy=0;" parent="1" edge="1">
          <mxGeometry width="50" height="50" relative="1" as="geometry">
            <mxPoint x="-475" y="750" as="sourcePoint" />
            <mxPoint x="-475.59000000000003" y="670" as="targetPoint" />
          </mxGeometry>
        </mxCell>
        <mxCell id="yq6flEP6wWiERsx3pFqE-125" value="" style="endArrow=none;html=1;rounded=0;exitX=0.5;exitY=0;exitDx=0;exitDy=0;" parent="1" edge="1">
          <mxGeometry width="50" height="50" relative="1" as="geometry">
            <mxPoint x="-419.59000000000003" y="750" as="sourcePoint" />
            <mxPoint x="-420.18" y="670" as="targetPoint" />
            <Array as="points">
              <mxPoint x="-420.59000000000003" y="700" />
            </Array>
          </mxGeometry>
        </mxCell>
        <mxCell id="yq6flEP6wWiERsx3pFqE-126" value="&lt;span style=&quot;background-color: rgb(255, 79, 15);&quot;&gt;EXERCICIO 02&lt;/span&gt;" style="text;html=1;align=center;verticalAlign=middle;whiteSpace=wrap;rounded=0;" parent="1" vertex="1">
          <mxGeometry x="-495" y="540" width="160" height="30" as="geometry" />
        </mxCell>
        <mxCell id="yq6flEP6wWiERsx3pFqE-128" value="" style="ellipse;whiteSpace=wrap;html=1;fillColor=#00CC66;" parent="1" vertex="1">
          <mxGeometry x="-80" y="750" width="30" height="30" as="geometry" />
        </mxCell>
        <mxCell id="yq6flEP6wWiERsx3pFqE-129" value="" style="endArrow=none;html=1;rounded=0;" parent="1" edge="1">
          <mxGeometry width="50" height="50" relative="1" as="geometry">
            <mxPoint x="-65.41999999999996" y="750" as="sourcePoint" />
            <mxPoint x="-65.41999999999996" y="670" as="targetPoint" />
          </mxGeometry>
        </mxCell>
        <mxCell id="yq6flEP6wWiERsx3pFqE-130" value="data_nasc" style="text;html=1;align=center;verticalAlign=middle;whiteSpace=wrap;rounded=0;rotation=90;" parent="1" vertex="1">
          <mxGeometry x="-95" y="815" width="60" height="40" as="geometry" />
        </mxCell>
        <mxCell id="yq6flEP6wWiERsx3pFqE-131" value="" style="rounded=0;whiteSpace=wrap;html=1;" parent="1" vertex="1">
          <mxGeometry x="-305" y="620" width="90" height="40" as="geometry" />
        </mxCell>
        <mxCell id="yq6flEP6wWiERsx3pFqE-132" value="POSSUI" style="rhombus;whiteSpace=wrap;html=1;" parent="1" vertex="1">
          <mxGeometry x="-300" y="620" width="80" height="40" as="geometry" />
        </mxCell>
        <mxCell id="yq6flEP6wWiERsx3pFqE-133" value="#ID_turma" style="text;html=1;align=center;verticalAlign=middle;whiteSpace=wrap;rounded=0;rotation=90;" parent="1" vertex="1">
          <mxGeometry x="-310" y="750" width="60" height="30" as="geometry" />
        </mxCell>
        <mxCell id="yq6flEP6wWiERsx3pFqE-134" value="#ID_Aluno" style="text;html=1;align=center;verticalAlign=middle;whiteSpace=wrap;rounded=0;rotation=90;" parent="1" vertex="1">
          <mxGeometry x="-270" y="750" width="60" height="30" as="geometry" />
        </mxCell>
        <mxCell id="yq6flEP6wWiERsx3pFqE-135" value="" style="ellipse;whiteSpace=wrap;html=1;" parent="1" vertex="1">
          <mxGeometry x="-295" y="700" width="30" height="30" as="geometry" />
        </mxCell>
        <mxCell id="yq6flEP6wWiERsx3pFqE-136" value="" style="ellipse;whiteSpace=wrap;html=1;" parent="1" vertex="1">
          <mxGeometry x="-255" y="700" width="30" height="30" as="geometry" />
        </mxCell>
        <mxCell id="yq6flEP6wWiERsx3pFqE-137" value="" style="endArrow=none;html=1;rounded=0;" parent="1" edge="1">
          <mxGeometry width="50" height="50" relative="1" as="geometry">
            <mxPoint x="-280.42" y="700" as="sourcePoint" />
            <mxPoint x="-280.42" y="660" as="targetPoint" />
            <Array as="points" />
          </mxGeometry>
        </mxCell>
        <mxCell id="yq6flEP6wWiERsx3pFqE-138" value="" style="endArrow=none;html=1;rounded=0;" parent="1" edge="1">
          <mxGeometry width="50" height="50" relative="1" as="geometry">
            <mxPoint x="-240.42000000000002" y="700" as="sourcePoint" />
            <mxPoint x="-240.42000000000002" y="660" as="targetPoint" />
            <Array as="points" />
          </mxGeometry>
        </mxCell>
        <mxCell id="yq6flEP6wWiERsx3pFqE-139" value="N" style="text;html=1;align=center;verticalAlign=middle;whiteSpace=wrap;rounded=0;rotation=0;" parent="1" vertex="1">
          <mxGeometry x="-350" y="600" width="50" height="20" as="geometry" />
        </mxCell>
        <mxCell id="yq6flEP6wWiERsx3pFqE-141" value="N" style="text;html=1;align=center;verticalAlign=middle;whiteSpace=wrap;rounded=0;rotation=0;" parent="1" vertex="1">
          <mxGeometry x="-215" y="600" width="50" height="20" as="geometry" />
        </mxCell>
        <mxCell id="yq6flEP6wWiERsx3pFqE-143" value="POSSUI" style="rhombus;whiteSpace=wrap;html=1;" parent="1" vertex="1">
          <mxGeometry x="-600" y="620" width="80" height="40" as="geometry" />
        </mxCell>
        <mxCell id="yq6flEP6wWiERsx3pFqE-144" value="N" style="text;html=1;align=center;verticalAlign=middle;whiteSpace=wrap;rounded=0;rotation=0;" parent="1" vertex="1">
          <mxGeometry x="-525" y="610" width="50" height="20" as="geometry" />
        </mxCell>
        <mxCell id="yq6flEP6wWiERsx3pFqE-145" value="1" style="text;html=1;align=center;verticalAlign=middle;whiteSpace=wrap;rounded=0;rotation=0;" parent="1" vertex="1">
          <mxGeometry x="-630" y="610" width="50" height="20" as="geometry" />
        </mxCell>
        <mxCell id="yq6flEP6wWiERsx3pFqE-146" value="#ID_Curso" style="text;html=1;align=center;verticalAlign=middle;whiteSpace=wrap;rounded=0;rotation=90;" parent="1" vertex="1">
          <mxGeometry x="-450" y="810" width="60" height="30" as="geometry" />
        </mxCell>
        <mxCell id="yq6flEP6wWiERsx3pFqE-147" value="" style="ellipse;whiteSpace=wrap;html=1;rounded=0;fillColor=#00CC66;" parent="1" vertex="1">
          <mxGeometry x="-390" y="750" width="30" height="30" as="geometry" />
        </mxCell>
        <mxCell id="yq6flEP6wWiERsx3pFqE-148" value="" style="endArrow=none;html=1;rounded=0;exitX=0.5;exitY=0;exitDx=0;exitDy=0;" parent="1" edge="1">
          <mxGeometry width="50" height="50" relative="1" as="geometry">
            <mxPoint x="-374.5" y="750" as="sourcePoint" />
            <mxPoint x="-375.09000000000003" y="670" as="targetPoint" />
            <Array as="points" />
          </mxGeometry>
        </mxCell>
        <mxCell id="yq6flEP6wWiERsx3pFqE-149" value="PROJETO" style="rounded=0;whiteSpace=wrap;html=1;" parent="1" vertex="1">
          <mxGeometry x="-740" y="1215" width="140" height="60" as="geometry" />
        </mxCell>
        <mxCell id="yq6flEP6wWiERsx3pFqE-151" value="" style="ellipse;whiteSpace=wrap;html=1;rounded=0;fillColor=#00CC66;" parent="1" vertex="1">
          <mxGeometry x="-705" y="1355" width="30" height="30" as="geometry" />
        </mxCell>
        <mxCell id="yq6flEP6wWiERsx3pFqE-152" value="nome_projeto" style="text;html=1;align=center;verticalAlign=middle;whiteSpace=wrap;rounded=0;rotation=90;" parent="1" vertex="1">
          <mxGeometry x="-720" y="1415" width="60" height="30" as="geometry" />
        </mxCell>
        <mxCell id="yq6flEP6wWiERsx3pFqE-153" value="" style="ellipse;whiteSpace=wrap;html=1;rounded=0;" parent="1" vertex="1">
          <mxGeometry x="-750" y="1375" width="30" height="30" as="geometry" />
        </mxCell>
        <mxCell id="yq6flEP6wWiERsx3pFqE-154" value="&lt;div&gt;ID_Projeto (PK)&lt;/div&gt;" style="text;html=1;align=center;verticalAlign=middle;whiteSpace=wrap;rounded=0;rotation=90;" parent="1" vertex="1">
          <mxGeometry x="-765" y="1430" width="60" height="30" as="geometry" />
        </mxCell>
        <mxCell id="yq6flEP6wWiERsx3pFqE-159" value="" style="endArrow=none;html=1;rounded=0;exitX=0.5;exitY=0;exitDx=0;exitDy=0;" parent="1" source="yq6flEP6wWiERsx3pFqE-153" edge="1">
          <mxGeometry width="50" height="50" relative="1" as="geometry">
            <mxPoint x="-734.92" y="1345" as="sourcePoint" />
            <mxPoint x="-735.42" y="1275" as="targetPoint" />
          </mxGeometry>
        </mxCell>
        <mxCell id="yq6flEP6wWiERsx3pFqE-160" value="" style="endArrow=none;html=1;rounded=0;exitX=0.5;exitY=0;exitDx=0;exitDy=0;" parent="1" source="yq6flEP6wWiERsx3pFqE-151" edge="1">
          <mxGeometry width="50" height="50" relative="1" as="geometry">
            <mxPoint x="-689.92" y="1345" as="sourcePoint" />
            <mxPoint x="-690.42" y="1275" as="targetPoint" />
            <Array as="points">
              <mxPoint x="-689.92" y="1315" />
            </Array>
          </mxGeometry>
        </mxCell>
        <mxCell id="yq6flEP6wWiERsx3pFqE-161" value="" style="endArrow=none;html=1;rounded=0;exitX=1;exitY=0.5;exitDx=0;exitDy=0;entryX=0;entryY=0.5;entryDx=0;entryDy=0;" parent="1" source="yq6flEP6wWiERsx3pFqE-149" target="yq6flEP6wWiERsx3pFqE-169" edge="1">
          <mxGeometry width="50" height="50" relative="1" as="geometry">
            <mxPoint x="-515" y="1244.5" as="sourcePoint" />
            <mxPoint x="-440" y="1245" as="targetPoint" />
            <Array as="points">
              <mxPoint x="-474.5" y="1244.5" />
            </Array>
          </mxGeometry>
        </mxCell>
        <mxCell id="yq6flEP6wWiERsx3pFqE-166" value="ID_funcionario (PK)" style="text;html=1;align=center;verticalAlign=middle;whiteSpace=wrap;rounded=0;rotation=90;" parent="1" vertex="1">
          <mxGeometry x="-270" y="1415" width="60" height="30" as="geometry" />
        </mxCell>
        <mxCell id="yq6flEP6wWiERsx3pFqE-167" value="" style="ellipse;whiteSpace=wrap;html=1;rounded=0;fillColor=#00CC66;" parent="1" vertex="1">
          <mxGeometry x="-200" y="1355" width="30" height="30" as="geometry" />
        </mxCell>
        <mxCell id="yq6flEP6wWiERsx3pFqE-168" value="&lt;div&gt;data_admissao&lt;/div&gt;" style="text;html=1;align=center;verticalAlign=middle;whiteSpace=wrap;rounded=0;rotation=90;" parent="1" vertex="1">
          <mxGeometry x="-170" y="1415" width="60" height="30" as="geometry" />
        </mxCell>
        <mxCell id="yq6flEP6wWiERsx3pFqE-169" value="FUNCIONARIOS" style="rounded=0;whiteSpace=wrap;html=1;" parent="1" vertex="1">
          <mxGeometry x="-240" y="1215" width="120" height="60" as="geometry" />
        </mxCell>
        <mxCell id="yq6flEP6wWiERsx3pFqE-170" value="" style="endArrow=none;html=1;rounded=0;exitX=0.5;exitY=0;exitDx=0;exitDy=0;" parent="1" edge="1">
          <mxGeometry width="50" height="50" relative="1" as="geometry">
            <mxPoint x="-240" y="1355" as="sourcePoint" />
            <mxPoint x="-240.59000000000003" y="1275" as="targetPoint" />
          </mxGeometry>
        </mxCell>
        <mxCell id="yq6flEP6wWiERsx3pFqE-171" value="" style="endArrow=none;html=1;rounded=0;exitX=0.5;exitY=0;exitDx=0;exitDy=0;" parent="1" edge="1">
          <mxGeometry width="50" height="50" relative="1" as="geometry">
            <mxPoint x="-184.59000000000003" y="1355" as="sourcePoint" />
            <mxPoint x="-185.18" y="1275" as="targetPoint" />
            <Array as="points">
              <mxPoint x="-185.59000000000003" y="1305" />
            </Array>
          </mxGeometry>
        </mxCell>
        <mxCell id="yq6flEP6wWiERsx3pFqE-172" value="&lt;span style=&quot;background-color: rgb(255, 79, 15);&quot;&gt;EXERCICIO 03&lt;/span&gt;" style="text;html=1;align=center;verticalAlign=middle;whiteSpace=wrap;rounded=0;" parent="1" vertex="1">
          <mxGeometry x="-510" y="1145" width="160" height="30" as="geometry" />
        </mxCell>
        <mxCell id="yq6flEP6wWiERsx3pFqE-186" value="POSSUI" style="rhombus;whiteSpace=wrap;html=1;" parent="1" vertex="1">
          <mxGeometry x="-470" y="1225" width="80" height="40" as="geometry" />
        </mxCell>
        <mxCell id="yq6flEP6wWiERsx3pFqE-187" value="N" style="text;html=1;align=center;verticalAlign=middle;whiteSpace=wrap;rounded=0;rotation=0;" parent="1" vertex="1">
          <mxGeometry x="-295" y="1215" width="50" height="20" as="geometry" />
        </mxCell>
        <mxCell id="yq6flEP6wWiERsx3pFqE-188" value="N" style="text;html=1;align=center;verticalAlign=middle;whiteSpace=wrap;rounded=0;rotation=0;" parent="1" vertex="1">
          <mxGeometry x="-590" y="1215" width="50" height="20" as="geometry" />
        </mxCell>
        <mxCell id="yq6flEP6wWiERsx3pFqE-189" value="nome_funcionario" style="text;html=1;align=center;verticalAlign=middle;whiteSpace=wrap;rounded=0;rotation=90;" parent="1" vertex="1">
          <mxGeometry x="-215" y="1430" width="60" height="30" as="geometry" />
        </mxCell>
        <mxCell id="yq6flEP6wWiERsx3pFqE-190" value="" style="ellipse;whiteSpace=wrap;html=1;rounded=0;fillColor=#00CC66;" parent="1" vertex="1">
          <mxGeometry x="-155" y="1355" width="30" height="30" as="geometry" />
        </mxCell>
        <mxCell id="yq6flEP6wWiERsx3pFqE-191" value="" style="endArrow=none;html=1;rounded=0;exitX=0.5;exitY=0;exitDx=0;exitDy=0;" parent="1" edge="1">
          <mxGeometry width="50" height="50" relative="1" as="geometry">
            <mxPoint x="-139.5" y="1355" as="sourcePoint" />
            <mxPoint x="-140.09000000000003" y="1275" as="targetPoint" />
            <Array as="points" />
          </mxGeometry>
        </mxCell>
        <mxCell id="yq6flEP6wWiERsx3pFqE-192" value="" style="ellipse;whiteSpace=wrap;html=1;rounded=0;fillColor=#00CC66;" parent="1" vertex="1">
          <mxGeometry x="-650" y="1355" width="30" height="30" as="geometry" />
        </mxCell>
        <mxCell id="yq6flEP6wWiERsx3pFqE-193" value="" style="endArrow=none;html=1;rounded=0;exitX=0.5;exitY=0;exitDx=0;exitDy=0;" parent="1" edge="1">
          <mxGeometry width="50" height="50" relative="1" as="geometry">
            <mxPoint x="-635" y="1355" as="sourcePoint" />
            <mxPoint x="-635.42" y="1275" as="targetPoint" />
            <Array as="points">
              <mxPoint x="-634.92" y="1315" />
            </Array>
          </mxGeometry>
        </mxCell>
        <mxCell id="yq6flEP6wWiERsx3pFqE-194" value="descricao" style="text;html=1;align=center;verticalAlign=middle;whiteSpace=wrap;rounded=0;rotation=90;" parent="1" vertex="1">
          <mxGeometry x="-665" y="1425" width="60" height="30" as="geometry" />
        </mxCell>
        <mxCell id="yq6flEP6wWiERsx3pFqE-196" value="#ID_Projeto" style="text;html=1;align=center;verticalAlign=middle;whiteSpace=wrap;rounded=0;rotation=90;" parent="1" vertex="1">
          <mxGeometry x="-490" y="1400" width="60" height="30" as="geometry" />
        </mxCell>
        <mxCell id="yq6flEP6wWiERsx3pFqE-197" value="#ID_funcionario" style="text;html=1;align=center;verticalAlign=middle;whiteSpace=wrap;rounded=0;rotation=90;" parent="1" vertex="1">
          <mxGeometry x="-420" y="1405" width="60" height="30" as="geometry" />
        </mxCell>
        <mxCell id="yq6flEP6wWiERsx3pFqE-198" value="" style="ellipse;whiteSpace=wrap;html=1;rounded=0;" parent="1" vertex="1">
          <mxGeometry x="-475" y="1335" width="30" height="30" as="geometry" />
        </mxCell>
        <mxCell id="yq6flEP6wWiERsx3pFqE-199" value="" style="ellipse;whiteSpace=wrap;html=1;rounded=0;" parent="1" vertex="1">
          <mxGeometry x="-405" y="1335" width="30" height="30" as="geometry" />
        </mxCell>
        <mxCell id="yq6flEP6wWiERsx3pFqE-200" value="" style="endArrow=none;html=1;rounded=0;" parent="1" edge="1">
          <mxGeometry width="50" height="50" relative="1" as="geometry">
            <mxPoint x="-460" y="1335" as="sourcePoint" />
            <mxPoint x="-460" y="1275" as="targetPoint" />
            <Array as="points">
              <mxPoint x="-459.5" y="1315" />
            </Array>
          </mxGeometry>
        </mxCell>
        <mxCell id="yq6flEP6wWiERsx3pFqE-201" value="" style="endArrow=none;html=1;rounded=0;" parent="1" edge="1">
          <mxGeometry width="50" height="50" relative="1" as="geometry">
            <mxPoint x="-390.83" y="1335" as="sourcePoint" />
            <mxPoint x="-390.83" y="1275" as="targetPoint" />
            <Array as="points">
              <mxPoint x="-390.33" y="1315" />
            </Array>
          </mxGeometry>
        </mxCell>
        <mxCell id="yq6flEP6wWiERsx3pFqE-202" value="" style="ellipse;whiteSpace=wrap;html=1;rounded=0;" parent="1" vertex="1">
          <mxGeometry x="-255" y="1355" width="30" height="30" as="geometry" />
        </mxCell>
        <mxCell id="yq6flEP6wWiERsx3pFqE-203" value="" style="ellipse;whiteSpace=wrap;html=1;rounded=0;" parent="1" vertex="1">
          <mxGeometry x="-490" y="750" width="30" height="30" as="geometry" />
        </mxCell>
        <mxCell id="yq6flEP6wWiERsx3pFqE-205" value="PACIENTE" style="rounded=0;whiteSpace=wrap;html=1;" parent="1" vertex="1">
          <mxGeometry x="-815.15" y="1770" width="140" height="60" as="geometry" />
        </mxCell>
        <mxCell id="yq6flEP6wWiERsx3pFqE-206" value="" style="ellipse;whiteSpace=wrap;html=1;rounded=0;fillColor=#00CC66;" parent="1" vertex="1">
          <mxGeometry x="-780.15" y="1910" width="30" height="30" as="geometry" />
        </mxCell>
        <mxCell id="yq6flEP6wWiERsx3pFqE-207" value="nome_paciente" style="text;html=1;align=center;verticalAlign=middle;whiteSpace=wrap;rounded=0;rotation=90;" parent="1" vertex="1">
          <mxGeometry x="-795.15" y="1970" width="60" height="30" as="geometry" />
        </mxCell>
        <mxCell id="yq6flEP6wWiERsx3pFqE-208" value="" style="ellipse;whiteSpace=wrap;html=1;rounded=0;" parent="1" vertex="1">
          <mxGeometry x="-825.15" y="1930" width="30" height="30" as="geometry" />
        </mxCell>
        <mxCell id="yq6flEP6wWiERsx3pFqE-209" value="&lt;div&gt;ID_Paciente (PK)&lt;/div&gt;" style="text;html=1;align=center;verticalAlign=middle;whiteSpace=wrap;rounded=0;rotation=90;" parent="1" vertex="1">
          <mxGeometry x="-840.15" y="1985" width="60" height="30" as="geometry" />
        </mxCell>
        <mxCell id="yq6flEP6wWiERsx3pFqE-210" value="" style="endArrow=none;html=1;rounded=0;exitX=0.5;exitY=0;exitDx=0;exitDy=0;" parent="1" source="yq6flEP6wWiERsx3pFqE-208" edge="1">
          <mxGeometry width="50" height="50" relative="1" as="geometry">
            <mxPoint x="-810.0699999999999" y="1900" as="sourcePoint" />
            <mxPoint x="-810.5699999999999" y="1830" as="targetPoint" />
          </mxGeometry>
        </mxCell>
        <mxCell id="yq6flEP6wWiERsx3pFqE-211" value="" style="endArrow=none;html=1;rounded=0;exitX=0.5;exitY=0;exitDx=0;exitDy=0;" parent="1" source="yq6flEP6wWiERsx3pFqE-206" edge="1">
          <mxGeometry width="50" height="50" relative="1" as="geometry">
            <mxPoint x="-765.0699999999999" y="1900" as="sourcePoint" />
            <mxPoint x="-765.5699999999999" y="1830" as="targetPoint" />
            <Array as="points">
              <mxPoint x="-765.0699999999999" y="1870" />
            </Array>
          </mxGeometry>
        </mxCell>
        <mxCell id="yq6flEP6wWiERsx3pFqE-212" value="" style="endArrow=none;html=1;rounded=0;exitX=1;exitY=0.5;exitDx=0;exitDy=0;entryX=0;entryY=0.5;entryDx=0;entryDy=0;" parent="1" source="QvKJupWxdAXX2G3viTEl-14" target="yq6flEP6wWiERsx3pFqE-216" edge="1">
          <mxGeometry width="50" height="50" relative="1" as="geometry">
            <mxPoint x="-590.15" y="1799.5" as="sourcePoint" />
            <mxPoint x="-515.15" y="1800" as="targetPoint" />
            <Array as="points" />
          </mxGeometry>
        </mxCell>
        <mxCell id="yq6flEP6wWiERsx3pFqE-213" value="ID_registro (PK)" style="text;html=1;align=center;verticalAlign=middle;whiteSpace=wrap;rounded=0;rotation=90;" parent="1" vertex="1">
          <mxGeometry x="-490.15" y="1970" width="60" height="30" as="geometry" />
        </mxCell>
        <mxCell id="yq6flEP6wWiERsx3pFqE-214" value="" style="ellipse;whiteSpace=wrap;html=1;rounded=0;fillColor=#FFFFFF;" parent="1" vertex="1">
          <mxGeometry x="-399.85" y="1890" width="30" height="30" as="geometry" />
        </mxCell>
        <mxCell id="yq6flEP6wWiERsx3pFqE-215" value="&lt;div&gt;data&lt;/div&gt;" style="text;html=1;align=center;verticalAlign=middle;whiteSpace=wrap;rounded=0;rotation=90;" parent="1" vertex="1">
          <mxGeometry x="-369.85" y="1980" width="60" height="30" as="geometry" />
        </mxCell>
        <mxCell id="yq6flEP6wWiERsx3pFqE-216" value="REGISTRO MEDICO" style="rounded=0;whiteSpace=wrap;html=1;" parent="1" vertex="1">
          <mxGeometry x="-459.85" y="1770" width="120" height="60" as="geometry" />
        </mxCell>
        <mxCell id="yq6flEP6wWiERsx3pFqE-217" value="" style="endArrow=none;html=1;rounded=0;exitX=0.5;exitY=0;exitDx=0;exitDy=0;" parent="1" edge="1">
          <mxGeometry width="50" height="50" relative="1" as="geometry">
            <mxPoint x="-459.85" y="1910" as="sourcePoint" />
            <mxPoint x="-460.44000000000005" y="1830" as="targetPoint" />
          </mxGeometry>
        </mxCell>
        <mxCell id="yq6flEP6wWiERsx3pFqE-218" value="" style="endArrow=none;html=1;rounded=0;" parent="1" edge="1">
          <mxGeometry width="50" height="50" relative="1" as="geometry">
            <mxPoint x="-384.85" y="1890" as="sourcePoint" />
            <mxPoint x="-384.94000000000005" y="1830" as="targetPoint" />
            <Array as="points">
              <mxPoint x="-385.35" y="1860" />
            </Array>
          </mxGeometry>
        </mxCell>
        <mxCell id="yq6flEP6wWiERsx3pFqE-219" value="&lt;span style=&quot;background-color: rgb(255, 79, 15);&quot;&gt;EXERCICIO 04&lt;/span&gt;" style="text;html=1;align=center;verticalAlign=middle;whiteSpace=wrap;rounded=0;" parent="1" vertex="1">
          <mxGeometry x="-510" y="1700" width="160" height="30" as="geometry" />
        </mxCell>
        <mxCell id="yq6flEP6wWiERsx3pFqE-221" value="N" style="text;html=1;align=center;verticalAlign=middle;whiteSpace=wrap;rounded=0;rotation=0;" parent="1" vertex="1">
          <mxGeometry x="-515" y="1770" width="50" height="20" as="geometry" />
        </mxCell>
        <mxCell id="yq6flEP6wWiERsx3pFqE-222" value="1" style="text;html=1;align=center;verticalAlign=middle;whiteSpace=wrap;rounded=0;rotation=0;" parent="1" vertex="1">
          <mxGeometry x="-665.15" y="1770" width="50" height="20" as="geometry" />
        </mxCell>
        <mxCell id="yq6flEP6wWiERsx3pFqE-223" value="#_ID_Medico" style="text;html=1;align=center;verticalAlign=middle;whiteSpace=wrap;rounded=0;rotation=90;" parent="1" vertex="1">
          <mxGeometry x="-414.85" y="1960" width="60" height="30" as="geometry" />
        </mxCell>
        <mxCell id="yq6flEP6wWiERsx3pFqE-224" value="" style="ellipse;whiteSpace=wrap;html=1;rounded=0;fillColor=#00CC66;" parent="1" vertex="1">
          <mxGeometry x="-359.85" y="1910" width="30" height="30" as="geometry" />
        </mxCell>
        <mxCell id="yq6flEP6wWiERsx3pFqE-225" value="" style="endArrow=none;html=1;rounded=0;exitX=0.5;exitY=0;exitDx=0;exitDy=0;" parent="1" edge="1">
          <mxGeometry width="50" height="50" relative="1" as="geometry">
            <mxPoint x="-344.26" y="1910" as="sourcePoint" />
            <mxPoint x="-344.85" y="1830" as="targetPoint" />
            <Array as="points" />
          </mxGeometry>
        </mxCell>
        <mxCell id="yq6flEP6wWiERsx3pFqE-226" value="" style="ellipse;whiteSpace=wrap;html=1;rounded=0;fillColor=#00CC66;" parent="1" vertex="1">
          <mxGeometry x="-725.15" y="1910" width="30" height="30" as="geometry" />
        </mxCell>
        <mxCell id="yq6flEP6wWiERsx3pFqE-227" value="" style="endArrow=none;html=1;rounded=0;exitX=0.5;exitY=0;exitDx=0;exitDy=0;" parent="1" edge="1">
          <mxGeometry width="50" height="50" relative="1" as="geometry">
            <mxPoint x="-710.15" y="1910" as="sourcePoint" />
            <mxPoint x="-710.5699999999999" y="1830" as="targetPoint" />
            <Array as="points">
              <mxPoint x="-710.0699999999999" y="1870" />
            </Array>
          </mxGeometry>
        </mxCell>
        <mxCell id="yq6flEP6wWiERsx3pFqE-228" value="data_nascimento" style="text;html=1;align=center;verticalAlign=middle;whiteSpace=wrap;rounded=0;rotation=90;" parent="1" vertex="1">
          <mxGeometry x="-740.15" y="1980" width="60" height="30" as="geometry" />
        </mxCell>
        <mxCell id="yq6flEP6wWiERsx3pFqE-230" value="#ID_Paciente" style="text;html=1;align=center;verticalAlign=middle;whiteSpace=wrap;rounded=0;rotation=90;" parent="1" vertex="1">
          <mxGeometry x="-449.85" y="1990" width="60" height="30" as="geometry" />
        </mxCell>
        <mxCell id="yq6flEP6wWiERsx3pFqE-232" value="" style="ellipse;whiteSpace=wrap;html=1;rounded=0;" parent="1" vertex="1">
          <mxGeometry x="-434.85" y="1925" width="30" height="30" as="geometry" />
        </mxCell>
        <mxCell id="yq6flEP6wWiERsx3pFqE-234" value="" style="endArrow=none;html=1;rounded=0;entryX=0.327;entryY=1.012;entryDx=0;entryDy=0;entryPerimeter=0;" parent="1" target="yq6flEP6wWiERsx3pFqE-216" edge="1">
          <mxGeometry width="50" height="50" relative="1" as="geometry">
            <mxPoint x="-420.27" y="1925" as="sourcePoint" />
            <mxPoint x="-419.85" y="1840" as="targetPoint" />
            <Array as="points">
              <mxPoint x="-419.77" y="1905" />
            </Array>
          </mxGeometry>
        </mxCell>
        <mxCell id="yq6flEP6wWiERsx3pFqE-235" value="" style="ellipse;whiteSpace=wrap;html=1;rounded=0;" parent="1" vertex="1">
          <mxGeometry x="-475.15" y="1910" width="30" height="30" as="geometry" />
        </mxCell>
        <mxCell id="vLZvN4WOpQpsGc3Mh0dI-1" value="FUNCIONARIO" style="rounded=0;whiteSpace=wrap;html=1;" parent="1" vertex="1">
          <mxGeometry x="-720" y="2380" width="140" height="60" as="geometry" />
        </mxCell>
        <mxCell id="vLZvN4WOpQpsGc3Mh0dI-2" value="" style="ellipse;whiteSpace=wrap;html=1;rounded=0;fillColor=#00CC66;" parent="1" vertex="1">
          <mxGeometry x="-685" y="2520" width="30" height="30" as="geometry" />
        </mxCell>
        <mxCell id="vLZvN4WOpQpsGc3Mh0dI-3" value="nome_funcionario" style="text;html=1;align=center;verticalAlign=middle;whiteSpace=wrap;rounded=0;rotation=90;" parent="1" vertex="1">
          <mxGeometry x="-700" y="2600" width="60" height="30" as="geometry" />
        </mxCell>
        <mxCell id="vLZvN4WOpQpsGc3Mh0dI-4" value="" style="ellipse;whiteSpace=wrap;html=1;rounded=0;" parent="1" vertex="1">
          <mxGeometry x="-730" y="2540" width="30" height="30" as="geometry" />
        </mxCell>
        <mxCell id="vLZvN4WOpQpsGc3Mh0dI-5" value="&lt;div&gt;ID_Funcionario (PK)&lt;/div&gt;" style="text;html=1;align=center;verticalAlign=middle;whiteSpace=wrap;rounded=0;rotation=90;" parent="1" vertex="1">
          <mxGeometry x="-745" y="2610" width="60" height="30" as="geometry" />
        </mxCell>
        <mxCell id="vLZvN4WOpQpsGc3Mh0dI-6" value="" style="endArrow=none;html=1;rounded=0;exitX=0.5;exitY=0;exitDx=0;exitDy=0;" parent="1" source="vLZvN4WOpQpsGc3Mh0dI-4" edge="1">
          <mxGeometry width="50" height="50" relative="1" as="geometry">
            <mxPoint x="-714.92" y="2510" as="sourcePoint" />
            <mxPoint x="-715.42" y="2440" as="targetPoint" />
          </mxGeometry>
        </mxCell>
        <mxCell id="vLZvN4WOpQpsGc3Mh0dI-7" value="" style="endArrow=none;html=1;rounded=0;exitX=0.5;exitY=0;exitDx=0;exitDy=0;" parent="1" source="vLZvN4WOpQpsGc3Mh0dI-2" edge="1">
          <mxGeometry width="50" height="50" relative="1" as="geometry">
            <mxPoint x="-669.92" y="2510" as="sourcePoint" />
            <mxPoint x="-670.42" y="2440" as="targetPoint" />
            <Array as="points">
              <mxPoint x="-669.92" y="2480" />
            </Array>
          </mxGeometry>
        </mxCell>
        <mxCell id="vLZvN4WOpQpsGc3Mh0dI-8" value="" style="endArrow=none;html=1;rounded=0;exitX=1;exitY=0.5;exitDx=0;exitDy=0;entryX=0;entryY=0.5;entryDx=0;entryDy=0;" parent="1" source="vLZvN4WOpQpsGc3Mh0dI-1" target="vLZvN4WOpQpsGc3Mh0dI-12" edge="1">
          <mxGeometry width="50" height="50" relative="1" as="geometry">
            <mxPoint x="-495" y="2409.5" as="sourcePoint" />
            <mxPoint x="-420" y="2410" as="targetPoint" />
            <Array as="points">
              <mxPoint x="-454.5" y="2409.5" />
            </Array>
          </mxGeometry>
        </mxCell>
        <mxCell id="vLZvN4WOpQpsGc3Mh0dI-9" value="ID_Departamento (PK)" style="text;html=1;align=center;verticalAlign=middle;whiteSpace=wrap;rounded=0;rotation=90;" parent="1" vertex="1">
          <mxGeometry x="-250" y="2600" width="60" height="30" as="geometry" />
        </mxCell>
        <mxCell id="vLZvN4WOpQpsGc3Mh0dI-10" value="" style="ellipse;whiteSpace=wrap;html=1;rounded=0;fillColor=#00CC66;" parent="1" vertex="1">
          <mxGeometry x="-160" y="2500" width="30" height="30" as="geometry" />
        </mxCell>
        <mxCell id="vLZvN4WOpQpsGc3Mh0dI-11" value="&lt;div&gt;geretnte&lt;/div&gt;" style="text;html=1;align=center;verticalAlign=middle;whiteSpace=wrap;rounded=0;rotation=90;" parent="1" vertex="1">
          <mxGeometry x="-130" y="2590" width="60" height="30" as="geometry" />
        </mxCell>
        <mxCell id="vLZvN4WOpQpsGc3Mh0dI-12" value="DEPARTAMENTO" style="rounded=0;whiteSpace=wrap;html=1;" parent="1" vertex="1">
          <mxGeometry x="-220" y="2380" width="120" height="60" as="geometry" />
        </mxCell>
        <mxCell id="vLZvN4WOpQpsGc3Mh0dI-13" value="" style="endArrow=none;html=1;rounded=0;exitX=0.5;exitY=0;exitDx=0;exitDy=0;" parent="1" edge="1">
          <mxGeometry width="50" height="50" relative="1" as="geometry">
            <mxPoint x="-220" y="2520" as="sourcePoint" />
            <mxPoint x="-220.59000000000003" y="2440" as="targetPoint" />
          </mxGeometry>
        </mxCell>
        <mxCell id="vLZvN4WOpQpsGc3Mh0dI-14" value="" style="endArrow=none;html=1;rounded=0;" parent="1" edge="1">
          <mxGeometry width="50" height="50" relative="1" as="geometry">
            <mxPoint x="-145" y="2500" as="sourcePoint" />
            <mxPoint x="-145.09000000000003" y="2440" as="targetPoint" />
            <Array as="points">
              <mxPoint x="-145.50000000000006" y="2470" />
            </Array>
          </mxGeometry>
        </mxCell>
        <mxCell id="vLZvN4WOpQpsGc3Mh0dI-15" value="&lt;span style=&quot;background-color: rgb(255, 79, 15);&quot;&gt;EXERCICIO 05&lt;/span&gt;" style="text;html=1;align=center;verticalAlign=middle;whiteSpace=wrap;rounded=0;" parent="1" vertex="1">
          <mxGeometry x="-495" y="2320" width="160" height="30" as="geometry" />
        </mxCell>
        <mxCell id="vLZvN4WOpQpsGc3Mh0dI-16" value="POSSUI" style="rhombus;whiteSpace=wrap;html=1;" parent="1" vertex="1">
          <mxGeometry x="-450" y="2390" width="80" height="40" as="geometry" />
        </mxCell>
        <mxCell id="vLZvN4WOpQpsGc3Mh0dI-17" value="1" style="text;html=1;align=center;verticalAlign=middle;whiteSpace=wrap;rounded=0;rotation=0;" parent="1" vertex="1">
          <mxGeometry x="-275" y="2380" width="50" height="20" as="geometry" />
        </mxCell>
        <mxCell id="vLZvN4WOpQpsGc3Mh0dI-18" value="N" style="text;html=1;align=center;verticalAlign=middle;whiteSpace=wrap;rounded=0;rotation=0;" parent="1" vertex="1">
          <mxGeometry x="-570" y="2380" width="50" height="20" as="geometry" />
        </mxCell>
        <mxCell id="vLZvN4WOpQpsGc3Mh0dI-19" value="nome" style="text;html=1;align=center;verticalAlign=middle;whiteSpace=wrap;rounded=0;rotation=90;" parent="1" vertex="1">
          <mxGeometry x="-175" y="2570" width="60" height="30" as="geometry" />
        </mxCell>
        <mxCell id="vLZvN4WOpQpsGc3Mh0dI-20" value="" style="ellipse;whiteSpace=wrap;html=1;rounded=0;fillColor=#00CC66;" parent="1" vertex="1">
          <mxGeometry x="-120" y="2520" width="30" height="30" as="geometry" />
        </mxCell>
        <mxCell id="vLZvN4WOpQpsGc3Mh0dI-21" value="" style="endArrow=none;html=1;rounded=0;exitX=0.5;exitY=0;exitDx=0;exitDy=0;" parent="1" edge="1">
          <mxGeometry width="50" height="50" relative="1" as="geometry">
            <mxPoint x="-104.40999999999997" y="2520" as="sourcePoint" />
            <mxPoint x="-105" y="2440" as="targetPoint" />
            <Array as="points" />
          </mxGeometry>
        </mxCell>
        <mxCell id="vLZvN4WOpQpsGc3Mh0dI-22" value="" style="ellipse;whiteSpace=wrap;html=1;rounded=0;fillColor=#00CC66;" parent="1" vertex="1">
          <mxGeometry x="-630" y="2520" width="30" height="30" as="geometry" />
        </mxCell>
        <mxCell id="vLZvN4WOpQpsGc3Mh0dI-23" value="" style="endArrow=none;html=1;rounded=0;exitX=0.5;exitY=0;exitDx=0;exitDy=0;" parent="1" edge="1">
          <mxGeometry width="50" height="50" relative="1" as="geometry">
            <mxPoint x="-615" y="2520" as="sourcePoint" />
            <mxPoint x="-615.42" y="2440" as="targetPoint" />
            <Array as="points">
              <mxPoint x="-614.92" y="2480" />
            </Array>
          </mxGeometry>
        </mxCell>
        <mxCell id="vLZvN4WOpQpsGc3Mh0dI-24" value="data_admissao" style="text;html=1;align=center;verticalAlign=middle;whiteSpace=wrap;rounded=0;rotation=90;" parent="1" vertex="1">
          <mxGeometry x="-645" y="2590" width="60" height="30" as="geometry" />
        </mxCell>
        <mxCell id="vLZvN4WOpQpsGc3Mh0dI-25" value="#ID_Departamento" style="text;html=1;align=center;verticalAlign=middle;whiteSpace=wrap;rounded=0;rotation=90;" parent="1" vertex="1">
          <mxGeometry x="-720" y="2750" width="60" height="30" as="geometry" />
        </mxCell>
        <mxCell id="vLZvN4WOpQpsGc3Mh0dI-26" value="" style="ellipse;whiteSpace=wrap;html=1;rounded=0;" parent="1" vertex="1">
          <mxGeometry x="-705" y="2680" width="30" height="30" as="geometry" />
        </mxCell>
        <mxCell id="vLZvN4WOpQpsGc3Mh0dI-27" value="" style="endArrow=none;html=1;rounded=0;entryX=0.207;entryY=1.1;entryDx=0;entryDy=0;entryPerimeter=0;" parent="1" target="vLZvN4WOpQpsGc3Mh0dI-1" edge="1">
          <mxGeometry width="50" height="50" relative="1" as="geometry">
            <mxPoint x="-690.16" y="2680" as="sourcePoint" />
            <mxPoint x="-690.5000000000002" y="2585.72" as="targetPoint" />
            <Array as="points">
              <mxPoint x="-689.66" y="2660" />
            </Array>
          </mxGeometry>
        </mxCell>
        <mxCell id="vLZvN4WOpQpsGc3Mh0dI-28" value="" style="ellipse;whiteSpace=wrap;html=1;rounded=0;" parent="1" vertex="1">
          <mxGeometry x="-235" y="2520" width="30" height="30" as="geometry" />
        </mxCell>
        <mxCell id="vLZvN4WOpQpsGc3Mh0dI-29" value="" style="ellipse;whiteSpace=wrap;html=1;rounded=0;fillColor=#00CC66;" parent="1" vertex="1">
          <mxGeometry x="-595" y="2535" width="30" height="30" as="geometry" />
        </mxCell>
        <mxCell id="vLZvN4WOpQpsGc3Mh0dI-30" value="" style="endArrow=none;html=1;rounded=0;exitX=0.5;exitY=0;exitDx=0;exitDy=0;entryX=1;entryY=1;entryDx=0;entryDy=0;" parent="1" source="vLZvN4WOpQpsGc3Mh0dI-29" target="vLZvN4WOpQpsGc3Mh0dI-1" edge="1">
          <mxGeometry width="50" height="50" relative="1" as="geometry">
            <mxPoint x="-580.58" y="2530" as="sourcePoint" />
            <mxPoint x="-581" y="2450" as="targetPoint" />
            <Array as="points">
              <mxPoint x="-580.5" y="2490" />
            </Array>
          </mxGeometry>
        </mxCell>
        <mxCell id="vLZvN4WOpQpsGc3Mh0dI-32" value="cargo" style="text;html=1;align=center;verticalAlign=middle;whiteSpace=wrap;rounded=0;rotation=90;" parent="1" vertex="1">
          <mxGeometry x="-605" y="2590" width="60" height="30" as="geometry" />
        </mxCell>
        <mxCell id="QvKJupWxdAXX2G3viTEl-1" value="MEDICO" style="rounded=0;whiteSpace=wrap;html=1;" vertex="1" parent="1">
          <mxGeometry x="-150" y="1770" width="140" height="60" as="geometry" />
        </mxCell>
        <mxCell id="QvKJupWxdAXX2G3viTEl-2" value="" style="ellipse;whiteSpace=wrap;html=1;rounded=0;fillColor=#00CC66;" vertex="1" parent="1">
          <mxGeometry x="-115" y="1910" width="30" height="30" as="geometry" />
        </mxCell>
        <mxCell id="QvKJupWxdAXX2G3viTEl-3" value="nome_medico" style="text;html=1;align=center;verticalAlign=middle;whiteSpace=wrap;rounded=0;rotation=90;" vertex="1" parent="1">
          <mxGeometry x="-130" y="1970" width="60" height="30" as="geometry" />
        </mxCell>
        <mxCell id="QvKJupWxdAXX2G3viTEl-4" value="" style="ellipse;whiteSpace=wrap;html=1;rounded=0;" vertex="1" parent="1">
          <mxGeometry x="-160" y="1930" width="30" height="30" as="geometry" />
        </mxCell>
        <mxCell id="QvKJupWxdAXX2G3viTEl-5" value="&lt;div&gt;ID_Medico (PK)&lt;/div&gt;" style="text;html=1;align=center;verticalAlign=middle;whiteSpace=wrap;rounded=0;rotation=90;" vertex="1" parent="1">
          <mxGeometry x="-175" y="1985" width="60" height="30" as="geometry" />
        </mxCell>
        <mxCell id="QvKJupWxdAXX2G3viTEl-6" value="" style="endArrow=none;html=1;rounded=0;exitX=0.5;exitY=0;exitDx=0;exitDy=0;" edge="1" parent="1" source="QvKJupWxdAXX2G3viTEl-4">
          <mxGeometry width="50" height="50" relative="1" as="geometry">
            <mxPoint x="-144.91999999999996" y="1900" as="sourcePoint" />
            <mxPoint x="-145.41999999999996" y="1830" as="targetPoint" />
          </mxGeometry>
        </mxCell>
        <mxCell id="QvKJupWxdAXX2G3viTEl-7" value="" style="endArrow=none;html=1;rounded=0;exitX=0.5;exitY=0;exitDx=0;exitDy=0;" edge="1" parent="1" source="QvKJupWxdAXX2G3viTEl-2">
          <mxGeometry width="50" height="50" relative="1" as="geometry">
            <mxPoint x="-99.91999999999996" y="1900" as="sourcePoint" />
            <mxPoint x="-100.41999999999996" y="1830" as="targetPoint" />
            <Array as="points">
              <mxPoint x="-99.91999999999996" y="1870" />
            </Array>
          </mxGeometry>
        </mxCell>
        <mxCell id="QvKJupWxdAXX2G3viTEl-8" value="1" style="text;html=1;align=center;verticalAlign=middle;whiteSpace=wrap;rounded=0;rotation=0;" vertex="1" parent="1">
          <mxGeometry y="1770" width="50" height="20" as="geometry" />
        </mxCell>
        <mxCell id="QvKJupWxdAXX2G3viTEl-9" value="" style="ellipse;whiteSpace=wrap;html=1;rounded=0;fillColor=#00CC66;" vertex="1" parent="1">
          <mxGeometry x="-60" y="1910" width="30" height="30" as="geometry" />
        </mxCell>
        <mxCell id="QvKJupWxdAXX2G3viTEl-10" value="" style="endArrow=none;html=1;rounded=0;exitX=0.5;exitY=0;exitDx=0;exitDy=0;" edge="1" parent="1">
          <mxGeometry width="50" height="50" relative="1" as="geometry">
            <mxPoint x="-45" y="1910" as="sourcePoint" />
            <mxPoint x="-45.41999999999996" y="1830" as="targetPoint" />
            <Array as="points">
              <mxPoint x="-44.91999999999996" y="1870" />
            </Array>
          </mxGeometry>
        </mxCell>
        <mxCell id="QvKJupWxdAXX2G3viTEl-11" value="especialização" style="text;html=1;align=center;verticalAlign=middle;whiteSpace=wrap;rounded=0;rotation=90;" vertex="1" parent="1">
          <mxGeometry x="-75" y="1980" width="60" height="30" as="geometry" />
        </mxCell>
        <mxCell id="QvKJupWxdAXX2G3viTEl-12" value="" style="endArrow=none;html=1;rounded=0;" edge="1" parent="1" source="QvKJupWxdAXX2G3viTEl-15">
          <mxGeometry width="50" height="50" relative="1" as="geometry">
            <mxPoint x="-340" y="1800" as="sourcePoint" />
            <mxPoint x="-150" y="1800" as="targetPoint" />
            <Array as="points" />
          </mxGeometry>
        </mxCell>
        <mxCell id="QvKJupWxdAXX2G3viTEl-16" value="" style="endArrow=none;html=1;rounded=0;" edge="1" parent="1" target="QvKJupWxdAXX2G3viTEl-15">
          <mxGeometry width="50" height="50" relative="1" as="geometry">
            <mxPoint x="-340" y="1800" as="sourcePoint" />
            <mxPoint x="-150" y="1800" as="targetPoint" />
            <Array as="points">
              <mxPoint x="-224.64999999999998" y="1799.5" />
            </Array>
          </mxGeometry>
        </mxCell>
        <mxCell id="QvKJupWxdAXX2G3viTEl-15" value="faz" style="rhombus;whiteSpace=wrap;html=1;" vertex="1" parent="1">
          <mxGeometry x="-270" y="1760" width="80" height="80" as="geometry" />
        </mxCell>
        <mxCell id="QvKJupWxdAXX2G3viTEl-17" value="" style="endArrow=none;html=1;rounded=0;exitX=1;exitY=0.5;exitDx=0;exitDy=0;entryX=0;entryY=0.5;entryDx=0;entryDy=0;" edge="1" parent="1" source="yq6flEP6wWiERsx3pFqE-205" target="QvKJupWxdAXX2G3viTEl-14">
          <mxGeometry width="50" height="50" relative="1" as="geometry">
            <mxPoint x="-675" y="1800" as="sourcePoint" />
            <mxPoint x="-460" y="1800" as="targetPoint" />
            <Array as="points">
              <mxPoint x="-549.65" y="1799.5" />
            </Array>
          </mxGeometry>
        </mxCell>
        <mxCell id="QvKJupWxdAXX2G3viTEl-14" value="faz" style="rhombus;whiteSpace=wrap;html=1;" vertex="1" parent="1">
          <mxGeometry x="-605" y="1760" width="80" height="80" as="geometry" />
        </mxCell>
        <mxCell id="QvKJupWxdAXX2G3viTEl-18" value="1" style="text;html=1;align=center;verticalAlign=middle;whiteSpace=wrap;rounded=0;rotation=0;" vertex="1" parent="1">
          <mxGeometry x="-195" y="1770" width="50" height="20" as="geometry" />
        </mxCell>
        <mxCell id="QvKJupWxdAXX2G3viTEl-19" value="N" style="text;html=1;align=center;verticalAlign=middle;whiteSpace=wrap;rounded=0;rotation=0;" vertex="1" parent="1">
          <mxGeometry x="-340" y="1770" width="50" height="20" as="geometry" />
        </mxCell>
      </root>
    </mxGraphModel>
  </diagram>
</mxfile>
